<?xml version="1.0"?>
<svg xmlns="http://www.w3.org/2000/svg" viewBox="0 0 24 24">
    <path fill="#E5E5E5" fill-rule="evenodd" d="M12.54 5.98c-.35.59-.55 1.28-.55 2.01 0 2.2 1.79 4 4 4 .74 0 1.43-.21 2.03-.56 -1.2-.56-2.46-1.46-3.25-2.24 -.8-.8-1.7-2.05-2.25-3.23Zm1.54-1.5c.3.94 1.34 2.52 2.12 3.3 .76.76 2.32 1.78 3.31 2.1 .3-.57.47-1.22.47-1.9 0-2.21-1.8-4-4-4 -.7 0-1.35.17-1.92.48Zm-.22 9.12c-1.61-.61-2.88-1.89-3.49-3.49l-6.1 8.75 .81.81 8.75-6.1Zm3.04.31L4.87 22.27l-3.19-3.19 8.36-12.03c.43-2.89 2.92-5.09 5.93-5.09 3.31 0 6 2.68 6 6 0 3-2.21 5.49-5.09 5.93Z"></path>
</svg>