<?xml version="1.0"?>
<svg xmlns="http://www.w3.org/2000/svg" viewBox="0 0 24 24">
    <path fill="none" d="M0 0h24v24H0Z"></path>
    <g fill="#FC0135">
        <path d="M16 10a2 2 0 1 0 0 4 2 2 0 1 0 0-4Z"></path>
        <path d="M23 6h-1.44L18.85 1.48c-.15-.24-.38-.41-.66-.47s-.56 0-.79.16L10.66 5.98h3.44l3.57-2.556L19.2 5.98h-4.24v2h7v8h-12v-2h-2v3c0 .55.44 1 1 1h6.882l-.23.44c-.17.34-.52.55-.9.55h-6.36l-2.42-2.42v-5.18l2.41-2.42h3.58v1c0 .55-.45 1-1 1h-2v2h2c1.654 0 3-1.346 3-3v-2c0-.56-.45-1-1-1h-5c-.27 0-.52.1-.71.29L5.37 9.07c-.14-.08-.3-.13-.46-.13h-4c-.552 0-1 .44-1 1v8c0 .55.448 1 1 1h4c.16 0 .32-.06.46-.13l1.83 1.83c.18.18.44.29.7.29h6.76c1.14 0 2.17-.64 2.683-1.66l.67-1.35h4.88c.55 0 1-.45 1-1v-10c0-.56-.45-1-1-1ZM4 17H2v-6h2v6Z"></path>
    </g>
</svg>