<svg width="91" height="92" fill="none" xmlns="http://www.w3.org/2000/svg"><path d="M88.78 73.793 68.6 40.153a9.348 9.348 0 0 0-16.026 0l-20.196 33.64A12.036 12.036 0 0 0 42.765 92h35.717A12.02 12.02 0 0 0 88.78 73.793ZM60.586 79.52a1.482 1.482 0 0 1-1.048-2.533 1.485 1.485 0 1 1 1.049 2.532Zm1.484-8.37a1.483 1.483 0 1 1-2.967 0v-17.02a1.485 1.485 0 0 1 2.967 0v17.02Z" fill="#FC0135"/><path d="M69.742 26.71h-4.451V4.452A4.452 4.452 0 0 0 60.839 0H4.452A4.452 4.452 0 0 0 0 4.452v47.484a4.452 4.452 0 0 0 4.452 4.451h13.354v4.452a4.452 4.452 0 0 0 4.452 4.452h47.484a4.452 4.452 0 0 0 4.452-4.452V31.16a4.452 4.452 0 0 0-4.452-4.451ZM4.452 53.42a1.485 1.485 0 0 1-1.484-1.484V4.452c0-.819.665-1.484 1.484-1.484h56.387c.819 0 1.484.665 1.484 1.484V26.71h-5.936V13.355a4.452 4.452 0 0 0-4.451-4.452H13.355a4.452 4.452 0 0 0-4.452 4.452v16.322a4.452 4.452 0 0 0 4.452 4.452h4.451v4.452h-7.419a1.485 1.485 0 0 0 0 2.967h7.42v2.968h-7.42a1.485 1.485 0 0 0 0 2.968h7.42v5.936H4.451Zm17.806-26.71a4.452 4.452 0 0 0-4.451 4.451h-4.452a1.485 1.485 0 0 1-1.484-1.484V13.355c0-.819.665-1.484 1.484-1.484h38.58c.82 0 1.485.665 1.485 1.484V26.71H22.258Zm48.968 34.129c0 .819-.665 1.484-1.484 1.484H22.258a1.485 1.485 0 0 1-1.484-1.484V31.16c0-.818.665-1.484 1.484-1.484h47.484c.819 0 1.484.666 1.484 1.484V60.84ZM46 37.097c0 .819-.665 1.484-1.484 1.484H28.194a1.485 1.485 0 0 1 0-2.968h16.322c.819 0 1.484.665 1.484 1.484ZM46 46c0 .819-.665 1.484-1.484 1.484H28.194a1.485 1.485 0 0 1 0-2.968h16.322c.819 0 1.484.666 1.484 1.484Zm-11.87 8.903c0 .819-.666 1.484-1.485 1.484h-4.451a1.485 1.485 0 0 1 0-2.967h4.451c.819 0 1.484.665 1.484 1.483Zm11.87 0c0 .819-.665 1.484-1.484 1.484h-4.451a1.485 1.485 0 0 1 0-2.967h4.451c.819 0 1.484.665 1.484 1.483Z" fill="#34353D"/></svg>