<svg xmlns="http://www.w3.org/2000/svg" viewBox="0 0 24 24"><path fill="#E5E5E5" fill-rule="evenodd" d="M12.54 5.98c-.35.59-.55 1.28-.55 2.01 0 2.2 1.79 4 4 4 .74 0 1.43-.21 2.03-.56-1.2-.56-2.46-1.46-3.25-2.24-.8-.8-1.7-2.05-2.25-3.23Zm1.54-1.5c.3.94 1.34 2.52 2.12 3.3.76.76 2.32 1.78 3.31 2.1.3-.57.47-1.22.47-1.9 0-2.21-1.8-4-4-4-.7 0-1.35.17-1.92.48Zm-.22 9.12a6.034 6.034 0 0 1-3.49-3.49l-6.1 8.75.81.81 8.75-6.1Zm3.04.31L4.87 22.27l-3.19-3.19 8.36-12.03a5.982 5.982 0 0 1 5.93-5.09 5.998 5.998 0 0 1 .91 11.93Z"/></svg>