<svg width="38" height="29" fill="none" xmlns="http://www.w3.org/2000/svg"><g clip-path="url(#clip0)" fill="#FC0135"><path d="M17.362 9.398c.591-4.165 3.016-6.714 4.431-7.5a5.99 5.99 0 0 1 .522-.255c-9.28-.461-9.866.8-12.167 8.797-.234.813-1.956 6.992-1.486 7.935.289.579 4.676 2.09 8.113 2.886-.49-2.443-.707-3.744-.13-7.265.203-1.222.453-2.743.717-4.598Z"/><path d="M18.594 28.97c5.007-.314 11.267-5.107 11.267-5.107-6.573-.392-14.319-1.415-18.543-3.378-2.99-1.39-3.98-1.048-4.305-.731-.508.219-1.476.67-3.206 1.516-5.79 2.83-3.834 2.986-1.565 3.064 2.269.079 8.372 2.671 8.372 2.671s2.972 2.28 7.98 1.965ZM37.377 18.768c.116-11.283-.476-15.324-9.031-16.617.553.318 1.112.74 1.632 1.302 1.807 1.957 2.53 4.951 2.147 8.9-.594 6.136-.886 9.169-1.026 10.636 1.7.085 3.16.05 3.926-.214 2.732-.943 2.352-4.007 2.352-4.007ZM27.53 1.87s-1.712-3.96-4.208-.354c0 0 2.084-.54 4.208.354Z"/><path d="M20.668 22.12s5.053.475 9.225.791c.14-1.452.43-4.485 1.03-10.675.346-3.579-.265-6.32-1.818-8.013-1.744-1.9-4.133-1.956-4.157-1.956h-.01c-.019 0-.037.064-.054.061-.054.009-.108.047-.165.04-.193-.022-5.187.325-6.163 7.184a215.683 215.683 0 0 1-.719 4.634c-.61 3.72-.363 4.83.238 7.368 1.514.339 2.593.567 2.593.567Z"/></g><defs><clipPath id="clip0"><path fill="#fff" d="M0 0h37.395v29H0z"/></clipPath></defs></svg>