<svg width="35" height="29" fill="none" xmlns="http://www.w3.org/2000/svg"><path d="M15.802 2.987h-5.57c-.51 0-.923.498-.923 1.058s.414 1.058.923 1.058h5.57c.509 0 .923-.498.923-1.058s-.414-1.058-.923-1.058ZM15.802 12.073h-5.57c-.51 0-.923.436-.923.996s.414.996.923.996h5.57c.509 0 .923-.436.923-.996s-.414-.996-.923-.996ZM15.802 6.348h-5.57c-.51 0-.923.435-.923.995s.414.996.923.996h5.57c.509 0 .923-.436.923-.996s-.414-.995-.923-.995ZM15.802 9.21h-5.57c-.51 0-.923.436-.923.996s.414.995.923.995h5.57c.509 0 .923-.435.923-.995s-.414-.996-.923-.996ZM1.54 11.201h5.567c.51 0 .924-.435.924-.995s-.414-.996-.924-.996H1.54c-.509 0-.923.436-.923.996s.413.995.923.995ZM.616 7.343c0 .56.413.996.923.996h5.568c.51 0 .924-.436.924-.996s-.414-.995-.924-.995H1.54c-.51 0-.923.435-.923.995ZM1.54 14.065h5.567c.51 0 .924-.436.924-.996s-.414-.996-.924-.996H1.54c-.509 0-.923.436-.923.996s.413.996.923.996ZM17.94 4.045c0 .56.413 1.058.922 1.058h5.569c.509 0 .923-.498.923-1.058s-.414-1.058-.924-1.058h-5.568c-.509 0-.923.498-.923 1.058ZM13.231 20.91h.442v5.477h1.129V20.91h.781c.423 0 .764-.39.764-.809 0-.42-.342-.809-.764-.809h-.781v-1.991h-1.129v1.991h-.442c-.422 0-.765.39-.765.81 0 .419.343.808.765.808ZM6.964 26.713c2.618 0 4.74-2.106 4.74-4.702 0-2.598-2.123-4.702-4.74-4.702-2.618 0-4.739 2.105-4.739 4.702 0 2.596 2.123 4.702 4.74 4.702Zm3.505-4.558h.32c0 1.992-1.87 3.722-3.979 3.722l-.162-.072v-.318l.162.072c1.933.002 3.66-1.537 3.66-3.404Zm-1.17 0h.32c0 1.37-1.345 2.56-2.809 2.56l-.162-.073v-.317l.162.072c1.287.002 2.489-1.122 2.489-2.242ZM6.964 20.69c.735 0 1.331.591 1.331 1.32 0 .73-.596 1.321-1.33 1.321-.736 0-1.332-.59-1.332-1.32 0-.73.598-1.32 1.331-1.32Z" fill="#FC0135"/><path d="M34.37 15.06H0V29h34.37V15.06Zm-1.003 12.945H1.004V16.056h32.363v11.949Z" fill="#FC0135"/><path d="M27.613 26.713c2.618 0 4.739-2.106 4.739-4.702 0-2.598-2.122-4.702-4.74-4.702-2.617 0-4.738 2.105-4.738 4.702-.002 2.596 2.121 4.702 4.739 4.702Zm3.505-4.558h.32c0 1.992-1.72 3.722-3.829 3.722-.002 0-.011-.072-.011-.072v-.232c2.006-.004 3.52-1.55 3.52-3.418Zm-1.172 0h.32c0 1.37-1.195 2.56-2.658 2.56a.693.693 0 0 1-.011-.073v-.232c1.254-.002 2.35-1.135 2.35-2.255Zm-2.333-1.465c.735 0 1.33.591 1.33 1.32 0 .73-.595 1.321-1.33 1.321-.735 0-1.331-.59-1.331-1.32 0-.73.596-1.32 1.33-1.32ZM9.309.937c0 .56.414 1.054.923 1.054h5.57c.509 0 .923-.494.923-1.054S16.31 0 15.802 0h-5.57c-.51 0-.923.377-.923.937ZM18.994 22.03h.449v4.357h1.254V22.03h.65a.752.752 0 0 0 .765-.746.752.752 0 0 0-.765-.747h-.65V17.3h-1.254v3.236h-.449a.75.75 0 0 0-.764.747c0 .42.343.746.764.746Z" fill="#FC0135"/><path d="M15.347 23.835c0 .42.343.81.764.81h.572v1.742h1.004v-1.743h.778c.422 0 .764-.39.764-.809 0-.42-.343-.809-.764-.809h-.778v-5.725h-1.004v5.725h-.57c-.423 0-.766.39-.766.81ZM24.432 9.21h-5.569c-.51 0-.923.436-.923.996s.414.995.923.995h5.569c.51 0 .923-.435.923-.995s-.414-.996-.923-.996ZM24.432 12.073h-5.569c-.51 0-.923.436-.923.996s.414.996.923.996h5.569c.51 0 .923-.436.923-.996s-.414-.996-.923-.996ZM33.06 12.073h-5.568c-.509 0-.923.436-.923.996s.414.996.924.996h5.568c.509 0 .923-.436.923-.996s-.413-.996-.923-.996ZM24.432 6.348h-5.569c-.51 0-.923.435-.923.995s.414.996.923.996h5.569c.51 0 .923-.436.923-.996s-.414-.995-.923-.995ZM26.57 10.206c0 .56.413.995.922.995h5.569c.509 0 .923-.435.923-.995s-.414-.996-.923-.996h-5.569c-.509 0-.923.436-.923.996Z" fill="#FC0135"/></svg>