<svg width="800" height="800" viewBox="0 0 32 32" xmlns="http://www.w3.org/2000/svg"><g fill="none" fill-rule="evenodd"><path d="M0 0h32v32H0z"/><path d="M17.006 2a1 1 0 0 1 .116 1.993L17.006 4H7a3 3 0 0 0-2.995 2.824L4 7v18a3 3 0 0 0 2.824 2.995L7 28h18a3 3 0 0 0 2.995-2.824L28 25v-9.996a1 1 0 0 1 1.993-.117l.007.117V25a5 5 0 0 1-4.783 4.995L25 30H7a5 5 0 0 1-4.995-4.783L2 25V7a5 5 0 0 1 4.783-4.995L7 2zm11.681 2a3 3 0 0 1 0 4.242l-9.683 9.683a5 5 0 0 1-1.857 1.174l-3.601 1.283a1 1 0 0 1-1.271-1.295l1.467-3.884a4 4 0 0 1 .913-1.415L24.445 4a3 3 0 0 1 4.242 0zm-2.74 1.336-.088.077-9.79 9.79a2 2 0 0 0-.39.55l-.066.157-.704 1.864 1.567-.559a3 3 0 0 0 .951-.553l.163-.151 9.683-9.683a1 1 0 0 0-1.327-1.492z" fill="#EAE4E4" fill-rule="nonzero"/></g></svg>