<svg width="31" height="29" fill="none" xmlns="http://www.w3.org/2000/svg"><g clip-path="url(#clip0)" fill="#FC0135"><path d="M9.172 1.448 8.05 8.434c2.083.597 4.645 1.112 7.249 1.112 2.608 0 5.178-.53 7.265-1.129l-1.125-6.969c-.51-3.494-2.74.434-6.121.434h-.025c-3.381 0-5.63-3.867-6.12-.434Z"/><path d="M30.611 10.202c0-1.71-2.79-1.168-7.005-.55l.498 3.107a.84.84 0 0 1-.487.902c-.163.071-4.025 1.758-8.292 1.758-4.262 0-8.162-1.662-8.326-1.733a.837.837 0 0 1-.494-.901l.501-3.132C2.791 9.034 0 8.49 0 10.203c0 2.681 6.852 8.21 15.306 8.21 8.453 0 15.305-5.529 15.305-8.21ZM23.25 24.461c0 .783-2.58 3.13-4.353 1.453-1.351-1.278-2.921-.998-3.592-.791-.673-.206-2.249-.486-3.6.791-1.773 1.677-4.35-.671-4.35-1.453 0-.773-1.16 6.482 7.951 4.032 9.111 2.45 7.944-4.805 7.944-4.032Z"/><path d="M8.388 9.987a.77.77 0 0 0 .767.774.77.77 0 0 0 .768-.774.77.77 0 0 0-.768-.774.771.771 0 0 0-.767.774ZM20.522 9.987c0 .427.344.774.767.774a.77.77 0 0 0 .767-.774.771.771 0 0 0-.767-.774.771.771 0 0 0-.767.774ZM11.421 10.658a.77.77 0 0 0 .768.773.77.77 0 0 0 .767-.773.771.771 0 0 0-.767-.774.771.771 0 0 0-.768.774ZM14.538 10.826c0 .427.344.774.767.774a.771.771 0 0 0 .767-.774.771.771 0 0 0-.767-.774.771.771 0 0 0-.767.774ZM17.488 10.658a.77.77 0 0 0 .768.773.77.77 0 0 0 .767-.773.771.771 0 0 0-.767-.774.771.771 0 0 0-.768.774Z"/><path d="M7.327 12.933s3.858 1.656 7.998 1.656c4.14 0 7.957-1.698 7.957-1.698l-.332-2.067c-2.142.642-4.863 1.228-7.652 1.228-2.784 0-5.497-.584-7.635-1.223l-.336 2.104Z"/></g><defs><clipPath id="clip0"><path fill="#fff" d="M0 0h30.611v29H0z"/></clipPath></defs></svg>