<svg height="512" width="512" xmlns="http://www.w3.org/2000/svg"><g id="Solid" fill="#FFF"><path d="M104 72h48a24 24 0 0 0 24-24 24 24 0 0 0-24-24H48a24 24 0 0 0-24 24v104a24 24 0 0 0 48 0v-48l116 116a22.627 22.627 0 0 0 32 0 22.627 22.627 0 0 0 0-32zM220 292a22.627 22.627 0 0 0-32 0L72 408v-48a24 24 0 0 0-48 0v104a24 24 0 0 0 24 24h104a24 24 0 0 0 24-24 24 24 0 0 0-24-24h-48l116-116a22.627 22.627 0 0 0 0-32zM464 24H360a24 24 0 0 0-24 24 24 24 0 0 0 24 24h48L292 188a22.627 22.627 0 0 0 0 32 22.627 22.627 0 0 0 32 0l116-116v48a24 24 0 0 0 48 0V48a24 24 0 0 0-24-24zM464 336a24 24 0 0 0-24 24v48L324 292a22.627 22.627 0 0 0-32 0 22.627 22.627 0 0 0 0 32l116 116h-48a24 24 0 0 0-24 24 24 24 0 0 0 24 24h104a24 24 0 0 0 24-24V360a24 24 0 0 0-24-24z"/></g></svg>