<svg width="15" height="41" fill="#FFF" xmlns="http://www.w3.org/2000/svg"><g clip-path="url(#clip0)"><path d="m6.195 13.19-.044 1.492h2.83l-.045-1.491H6.195ZM6.307 8.946l-.044 1.492h2.606l-.044-1.492H6.307ZM6.25 11.011l-.043 1.72h2.719l-.044-1.72H6.25ZM6.139 15.14l-.032 1.262h2.918l-.032-1.261H6.14ZM6.008 20.072l-.031 1.262h3.179l-.032-1.262H6.008ZM6.095 16.86l-.03 1.148h3.002l-.03-1.147H6.095ZM6.052 18.466l-.032 1.147h3.091l-.031-1.147H6.052ZM5.232 4.244c-.251 0-.312.297-.312.536v.173c0 .24.061.322.312.322h.545l-.146-1.032h-.399v.001ZM6.246 29.69a.573.573 0 0 0-.568-.578.573.573 0 0 0-.568.579c0 .318.255.578.568.578a.573.573 0 0 0 .568-.578ZM4.84.688c-.246 0-.37.318-.37.557v.173c0 .24.124.303.37.303h.428L5.122.688h-.283ZM6.369 6.538l-.05 1.95h2.494l-.05-1.95H6.37ZM5.035 2.41c-.248 0-.34.305-.34.545v.173c0 .24.092.313.34.313h.486L5.374 2.41h-.339ZM9.247 24.775l-.037-1.49H5.92l-.036 1.49h3.363ZM5.965 21.793l-.032 1.032h3.266l-.031-1.032H5.965ZM9.429 33.318a.573.573 0 0 0-.568.578c0 .318.255.578.568.578.313 0 .568-.26.568-.578a.571.571 0 0 0-.568-.578Z"/><path d="M10.271 1.72c.246 0 .506-.095.506-.334v-.173c0-.24-.26-.525-.506-.525h-.261l-.147 1.033h.408Z" fill="#3A8BBB"/><path d="M8.112 29.69a.573.573 0 0 0-.568-.578.573.573 0 0 0-.568.579c0 .318.255.578.568.578a.572.572 0 0 0 .568-.578ZM5.437.495l.735 5.198c0 .157.125.272.28.272h2.23c.154 0 .279-.086.279-.243L9.695.454c0-.24-.19-.455-.426-.455H5.863c-.234.002-.426.256-.426.496Zm3.35 4.368c0 .263-.212.478-.47.478a.475.475 0 0 1-.47-.478c0-.264.21-.479.47-.479.258 0 .47.214.47.479Zm-1.534 0c0 .263-.21.478-.47.478a.474.474 0 0 1-.47-.478c0-.264.211-.479.47-.479.26 0 .47.214.47.479ZM9 3.02c0 .263-.21.478-.47.478a.474.474 0 0 1-.47-.478c0-.265.211-.479.47-.479.26 0 .47.214.47.479Zm-1.959 0c0 .263-.21.478-.47.478a.474.474 0 0 1-.47-.478c0-.265.211-.479.47-.479.26 0 .47.214.47.479Zm2.172-1.778c0 .264-.21.478-.47.478a.474.474 0 0 1-.47-.478c0-.264.211-.479.47-.479.26 0 .47.215.47.479Zm-2.385 0c0 .264-.21.478-.47.478a.474.474 0 0 1-.47-.478c0-.264.212-.479.47-.479.26 0 .47.215.47.479ZM6.264 33.896a.573.573 0 0 0-.568-.578.573.573 0 0 0-.568.578c0 .318.255.578.568.578.314 0 .568-.26.568-.578Z"/><path d="M10.075 3.441c.248 0 .477-.074.477-.313v-.173c0-.24-.229-.546-.477-.546h-.317L9.61 3.441h.464Z" fill="#3A8BBB"/><path d="M8.13 33.896a.573.573 0 0 0-.567-.578.573.573 0 0 0-.568.578c0 .318.255.578.568.578.314 0 .568-.26.568-.578ZM9.979 29.69a.573.573 0 0 0-.568-.578.573.573 0 0 0-.568.579c0 .318.255.578.568.578a.572.572 0 0 0 .568-.578Z"/><path d="M10.327 4.797c0-.24-.197-.553-.448-.553H9.5l-.146 1.032h.524c.25 0 .448-.066.448-.306v-.173ZM13.03 6.653h-.102c.037.029.072.059.102.086v-.086Z" fill="#3A8BBB"/><path d="M13.213 29.26c-.252-.955 1.224-.048 1.108-2.297-.298-5.744-.658-3.551-1.735-1.505-1.149 2.305-2.31-.158-2.953-2.052l.039 1.493c.003.117-.04.175-.12.258-.08.084-.19.075-.306.075H5.884c-.115 0-.225.01-.305-.075a.374.374 0 0 1-.12-.285l.086-3.219c-1.405.073-6.788.978-3.962 6.045 1.162 2.083.585 2.53-.26 4.253-.844 1.724-3.406 4.471 2.181 7.957 6.522 3.078 10.358-1.124 11.16-3.164 1.203-3.063-1.198-6.527-1.45-7.484Zm-7.31 1.25c-.667 0-1.208-.398-1.208-.887v-.063c0-.49.54-.887 1.208-.887h3.329c.666 0 1.208.397 1.208.887v.063c0 .49-.54.886-1.208.886H5.903Zm0 4.128c-.667 0-1.208-.396-1.208-.886v-.063c0-.49.54-.887 1.208-.887h3.329c.666 0 1.208.397 1.208.887v.063c0 .49-.54.886-1.208.886H5.903Zm4.987 2.639v1.032H4.244v-1.032h6.646Z"/></g></svg>