<svg width="79" height="79" fill="none" xmlns="http://www.w3.org/2000/svg"><path d="M40.71 15.787c-17.428 0-31.606 14.179-31.606 31.606C9.104 64.821 23.282 79 40.71 79c17.427 0 31.606-14.178 31.606-31.606 0-17.427-14.179-31.606-31.606-31.606Zm0 58.584c-14.875 0-26.978-12.101-26.978-26.978 0-14.876 12.101-26.977 26.978-26.977 14.876 0 26.977 12.101 26.977 26.977 0 14.877-12.103 26.978-26.977 26.978Z" fill="#FC0136"/><path d="M54.512 53.272a2.314 2.314 0 0 0-3.263.249 13.872 13.872 0 0 1-10.54 4.849 13.872 13.872 0 0 1-10.539-4.85 2.312 2.312 0 0 0-3.263-.248 2.312 2.312 0 0 0-.249 3.263 18.5 18.5 0 0 0 14.052 6.464c5.408 0 10.529-2.356 14.053-6.464a2.314 2.314 0 0 0-.25-3.263ZM27.862 43.755a2.314 2.314 0 0 0 2.314-2.315 1.346 1.346 0 0 1 2.691 0 2.314 2.314 0 1 0 4.63 0 5.982 5.982 0 0 0-5.975-5.974 5.982 5.982 0 0 0-5.974 5.974 2.314 2.314 0 0 0 2.314 2.315ZM49.898 35.466a5.982 5.982 0 0 0-5.975 5.974 2.314 2.314 0 1 0 4.63 0c0-.742.604-1.345 1.345-1.345.74 0 1.345.602 1.345 1.345a2.314 2.314 0 1 0 4.629 0 5.98 5.98 0 0 0-5.974-5.974ZM59.779 13.002h3.376a2.315 2.315 0 0 0 0-4.629h-3.376a2.315 2.315 0 0 0 0 4.629ZM68.232 21.373a2.315 2.315 0 0 0 2.315-2.314v-3.376a2.315 2.315 0 0 0-4.63 0v3.376a2.313 2.313 0 0 0 2.315 2.314ZM76.686 8.373h-3.377a2.315 2.315 0 0 0 0 4.629h3.377a2.315 2.315 0 0 0 0-4.629ZM68.232 8.005a2.315 2.315 0 0 0 2.315-2.315V2.314a2.315 2.315 0 0 0-4.63 0V5.69a2.313 2.313 0 0 0 2.315 2.315ZM5.01 11.459H2.314a2.314 2.314 0 1 0 0 4.629H5.01a2.315 2.315 0 0 0 0-4.629ZM12.148 21.227v-2.695a2.314 2.314 0 1 0-4.629 0v2.695a2.315 2.315 0 0 0 4.63 0ZM14.66 16.088h2.695a2.315 2.315 0 0 0 0-4.629H14.66a2.315 2.315 0 0 0 0 4.629ZM9.834 11.328a2.314 2.314 0 0 0 2.314-2.315V6.318a2.314 2.314 0 1 0-4.629 0v2.695a2.315 2.315 0 0 0 2.315 2.315Z" fill="#FC0136"/></svg>