<svg width="14" height="14" fill="none" xmlns="http://www.w3.org/2000/svg"><path d="M6.998 4.666A2.34 2.34 0 0 0 4.664 7a2.34 2.34 0 0 0 2.334 2.334A2.34 2.34 0 0 0 9.332 7a2.34 2.34 0 0 0-2.334-2.334ZM14 7c0-.967.009-1.925-.045-2.89-.055-1.12-.31-2.115-1.13-2.934C12.003.354 11.01.1 9.89.046 8.923-.008 7.965.001 7 .001 6.034 0 5.076-.01 4.11.046 2.99.1 1.995.356 1.176 1.176.354 1.996.1 2.99.046 4.11-.008 5.077.001 6.035.001 7c0 .965-.01 1.925.045 2.89.054 1.12.31 2.115 1.13 2.934.82.822 1.814 1.076 2.934 1.13.967.054 1.925.045 2.89.045.966 0 1.924.01 2.89-.045 1.12-.054 2.115-.31 2.934-1.13.822-.82 1.075-1.814 1.13-2.935.056-.964.045-1.922.045-2.889Zm-7 3.592A3.587 3.587 0 0 1 3.406 7a3.587 3.587 0 0 1 3.591-3.592A3.587 3.587 0 0 1 10.59 7a3.587 3.587 0 0 1-3.592 3.592ZM10.736 4.1a.838.838 0 1 1 0-1.678.838.838 0 1 1 0 1.678Z" fill="#8103FC"/></svg>