<svg width="36" height="30" fill="none" xmlns="http://www.w3.org/2000/svg"><g clip-path="url(#clip0)" fill="#FC0135"><path d="M14.863 6.334a7.288 7.288 0 0 0-2.123-4.186C9.827-.712 5.1-.718 2.186 2.143a7.23 7.23 0 0 0-.002 10.358 7.55 7.55 0 0 0 4.367 2.105l14.07 12.176 6.692-6.573-12.45-13.875Zm-.754-.009-.42.413-1.423-1.397 1.117-1.097c.323.616.558 1.314.726 2.081Zm-1.875-3.591c.241.236.456.484.658.75L11.635 4.72l-1.423-1.396L11.47 2.09c.273.197.524.409.765.645ZM4.839 7.359 3.416 8.756 1.994 7.36l1.422-1.397L4.84 7.359Zm-.79-2.018 1.423-1.398 1.422 1.398L5.47 6.738 4.05 5.34ZM5.47 7.98l1.423 1.397-1.423 1.396L4.05 9.376 5.47 7.98Zm.633-.622 1.423-1.397 1.422 1.397-1.422 1.397L6.103 7.36Zm2.054-2.018L9.58 3.943l1.422 1.398L9.58 6.738 8.157 5.34ZM8.578.892a5.79 5.79 0 0 1 2.12.714L9.58 2.702 8.157 1.305l.421-.413ZM7.526 1.926l1.422 1.397-1.422 1.398-1.423-1.398 1.423-1.397ZM6.389.81l.504.495L5.47 2.702 4.278 1.531C4.903 1.213 5.611.978 6.39.81ZM2.766 2.646c.234-.23.473-.429.742-.629l1.33 1.306-1.422 1.398-1.324-1.302c.2-.27.427-.53.674-.773ZM1.603 4.182l1.18 1.16-1.422 1.396-.476-.468c.086-.692.32-1.394.718-2.088ZM.912 8.42l.45-.44 1.422 1.396-1.146 1.126A5.57 5.57 0 0 1 .912 8.42Zm1.875 3.592a6.816 6.816 0 0 1-.658-.751l1.286-1.263 1.423 1.397-1.286 1.263a6.854 6.854 0 0 1-.765-.646Zm3.657 1.841c-.78-.164-1.492-.397-2.119-.713l1.145-1.125 1.423 1.397-.45.441Zm1.082-1.06-1.423-1.398 1.423-1.397 1.422 1.397-1.422 1.397Zm2.054-2.02L8.157 9.377 9.58 7.98l1.422 1.397-1.422 1.398Zm.632-3.414 1.423-1.397 1.422 1.397-1.422 1.397-1.423-1.397Zm9.963 11.946-.486.478c-.87.854-2.28.854-3.15 0l-4.041-3.97a2.16 2.16 0 0 1 0-3.093l.486-.478a2.256 2.256 0 0 1 3.149 0l4.042 3.97c.87.854.87 2.24 0 3.093Z"/><path d="M30.648 13.832c-1.19-1.164-2.438-2.268-3.677-3.38-.917-.822-1.87-1.639-2.661-2.58-.32-.381-.868.163-.551.54.926 1.103 2.06 2.043 3.132 3.004 1.438 1.286 2.87 2.579 4.21 3.965 1.269 1.316 2.483 2.736 3.31 4.37.648 1.283.964 2.789.27 4.118-.26.5-.652.916-1.026 1.333a17.178 17.178 0 0 1-1.722 1.685c-.568.479-1.194.962-1.934 1.126-.672.15-1.134-.167-1.535-.55l1.209-1.187-2.095-2.91 1.405-1.38c.342-.337.346-.974.004-1.31l-.021-.02c-.342-.337-.905-.248-1.247.088l-6.555 6.438c-.342.336-.363.821-.022 1.157l.02.021c.343.336.924.4 1.266.064l1.406-1.381 2.962 2.058 1.12-1.099c.24.23.453.41.736.58.517.31 1.078.259 1.643.133 1.118-.25 2.088-1.144 2.886-1.9 1.268-1.199 2.56-2.541 2.677-4.349.099-1.543-.659-3.058-1.487-4.319-1.038-1.588-2.367-2.99-3.724-4.315ZM17.902 15.377c-.406-.399-1.164-.303-1.69.215l-.303.297c-.527.518-.626 1.262-.219 1.66l1.849 1.815c.405.4 1.163.303 1.69-.215l.302-.297c.528-.518.626-1.261.22-1.66l-1.85-1.815Z"/></g><defs><clipPath id="clip0"><path fill="#fff" d="M0 0h35.867v29.1H0z"/></clipPath></defs></svg>