<svg xmlns="http://www.w3.org/2000/svg" width="512" height="512" viewBox="0 0 480 480" style="enable-background:new 0 0 512 512" xml:space="preserve"><path d="M326.998 212.07a8 8 0 0 0-3.038-3.038l-128-72A8 8 0 0 0 184 144v144a8.001 8.001 0 0 0 4 6.904 7.999 7.999 0 0 0 7.96.064l128-72a8 8 0 0 0 3.038-10.898zM200 274.32V157.68L303.68 216 200 274.32zM160 376v-16h-16v16H32v16h112v16h16v-16h288v-16z" fill="#fff" data-original="#000000" xmlns="http://www.w3.org/2000/svg"/><path d="M240 88c-70.692 0-128 57.308-128 128 .084 70.658 57.342 127.916 128 128 70.692 0 128-57.308 128-128S310.692 88 240 88zm0 240c-61.856 0-112-50.144-112-112 .066-61.828 50.172-111.934 112-112 61.856 0 112 50.144 112 112s-50.144 112-112 112z" fill="#fff" data-original="#000000" xmlns="http://www.w3.org/2000/svg"/><path d="M456 40H24C10.745 40 0 50.745 0 64v352c0 13.255 10.745 24 24 24h432c13.255 0 24-10.745 24-24V64c0-13.255-10.745-24-24-24zm8 376a8 8 0 0 1-8 8H24a8 8 0 0 1-8-8V64a8 8 0 0 1 8-8h432a8 8 0 0 1 8 8v352z" fill="#fff" data-original="#000000" xmlns="http://www.w3.org/2000/svg"/><path fill="#fff" data-original="#000000" d="M32 72h16v16H32zM64 72h16v16H64zM96 72h16v16H96z" xmlns="http://www.w3.org/2000/svg"/></svg>