<svg xmlns="http://www.w3.org/2000/svg" viewBox="0 0 20 20"><g fill="#FFF"><path d="M17.66 2.3c-.1-.08-.22-.1-.34-.08l-9.6 2c-.18.04-.32.2-.32.4v8.16c-.54-.6-1.32-.96-2.2-.96-1.66 0-3 1.34-3 3s1.34 3 3 3 3-1.34 3-3v-7.1L17 5.88v4.88a2.96 2.96 0 0 0-2.2-.96c-1.66 0-3 1.34-3 3s1.34 3 3 3 3-1.34 3-3V2.6a.39.39 0 0 0-.14-.3ZM5.2 17C3.98 17 3 16.02 3 14.8s.98-2.2 2.2-2.2 2.2.98 2.2 2.2S6.42 17 5.2 17Zm9.6-2c-1.22 0-2.2-.98-2.2-2.2s.98-2.2 2.2-2.2 2.2.98 2.2 2.2-.98 2.2-2.2 2.2ZM17 5.08 8.2 6.92V4.94L17 3.1v1.98Z"/><path d="M132.8-130v336.8H-224V-130h356.8m1.6-1.6h-360v340h360v-340Z"/></g></svg>