<svg xmlns="http://www.w3.org/2000/svg" viewBox="0 0 24 24"><path fill="#FFF" d="M22.19 10.299c-.36-.27-.8-.59-.86-.81-.07-.24.16-.76.34-1.173.31-.72.63-1.46.27-2.08-.37-.625-1.18-.72-1.96-.81-.45-.05-1.01-.12-1.17-.28-.17-.17-.23-.73-.28-1.169-.09-.79-.18-1.593-.81-1.96-.55-.32-1.35-.04-2.08.27-.4.17-.82.34-1.18.34-.22-.06-.55-.5-.81-.86-.46-.62-.97-1.31-1.7-1.31-.74 0-1.25.694-1.7 1.306-.27.355-.59.79-.9.86-.27 0-.69-.18-1.09-.36-.73-.32-1.54-.589-2.074-.28-.63.36-.718 1.17-.806 1.956-.05.44-.12 1-.28 1.169-.17.16-.73.22-1.17.27-.79.08-1.6.17-1.96.8-.357.61-.04 1.35.27 2.075.18.41.4.93.34 1.173-.06.21-.5.54-.86.8-.62.45-1.307.96-1.307 1.7-.001.73.694 1.25 1.307 1.7.35.26.79.58.85.8.06.23-.17.75-.35 1.173-.32.71-.64 1.45-.28 2.07.36.625 1.17.71 1.955.8.44.05 1 .11 1.16.27.16.16.22.72.27 1.16.08.78.17 1.593.8 1.95.54.31 1.34.04 2.07-.28.4-.18.81-.36 1.17-.35.21.05.54.5.8.85.45.61.96 1.3 1.7 1.3.73 0 1.24-.7 1.7-1.31.26-.36.58-.8.89-.87.27 0 .68.18 1.08.35.72.31 1.53.59 2.07.27.62-.37.718-1.18.8-1.96.05-.45.11-1.01.27-1.17.16-.17.72-.23 1.16-.28.78-.09 1.59-.18 1.95-.81.35-.62.03-1.36-.28-2.08-.19-.42-.41-.94-.35-1.173.05-.22.49-.55.85-.81.61-.46 1.3-.97 1.3-1.71s-.7-1.25-1.31-1.71Zm-12.7 3.7c-.01.21-.14.4-.35.47-.06.01-.11.02-.16.02-.16 0-.31-.08-.4-.2l-2.1-2.8v2.5c0 .27-.23.5-.5.5-.28 0-.5-.23-.5-.5v-4a.495.495 0 0 1 .89-.31l2.1 2.8v-2.5c0-.28.22-.5.5-.5.27 0 .5.22.5.5v4Zm3.49-2.5c.27 0 .5.22.5.5 0 .27-.23.5-.5.5h-1.5v1h1.5c.27 0 .5.22.5.5 0 .27-.23.5-.5.5h-2c-.28 0-.5-.23-.5-.5v-4c0-.28.22-.5.5-.5h2c.27 0 .5.22.5.5 0 .27-.23.5-.5.5h-1.5v1h1.5Zm6.48-1.38-1 4c-.06.21-.25.37-.47.37h-.02c-.22 0-.41-.14-.48-.35l-.53-1.58-.53 1.577c-.07.21-.25.35-.5.34a.503.503 0 0 1-.47-.38l-1-4c-.07-.27.09-.54.36-.61.26-.07.53.09.6.36l.58 2.33.45-1.38c.13-.41.81-.41.94 0l.45 1.37.58-2.34a.49.49 0 0 1 .6-.37c.27.06.43.34.36.6Z"/></svg>