<svg version="1.1" id="Capa_1" xmlns="http://www.w3.org/2000/svg" x="0" y="0" viewBox="0 0 512 512" style="enable-background:new 0 0 512 512" xml:space="preserve"><path fill="#fff" d="M437.333 117.333h-64a10.64 10.64 0 0 1-10.112-7.296l-6.741-20.224a53.268 53.268 0 0 0-50.603-36.48h-99.755a53.23 53.23 0 0 0-50.581 36.459l-6.741 20.245a10.687 10.687 0 0 1-10.133 7.296h-64C33.493 117.333 0 150.827 0 192v192c0 41.173 33.493 74.667 74.667 74.667h362.667C478.507 458.667 512 425.173 512 384V192c0-41.173-33.493-74.667-74.667-74.667zM490.667 384c0 29.397-23.936 53.333-53.333 53.333H74.667c-29.397 0-53.333-23.936-53.333-53.333V192c0-29.397 23.936-53.333 53.333-53.333h64a31.982 31.982 0 0 0 30.357-21.867l6.763-20.267a31.937 31.937 0 0 1 30.336-21.867h99.755a31.973 31.973 0 0 1 30.357 21.888l6.741 20.245a31.983 31.983 0 0 0 30.357 21.867h64c29.397 0 53.333 23.936 53.333 53.333V384z"/><path fill="#fff" d="M256 160c-70.592 0-128 57.408-128 128s57.408 128 128 128 128-57.408 128-128-57.408-128-128-128zm0 234.667c-58.816 0-106.667-47.851-106.667-106.667S197.184 181.333 256 181.333 362.667 229.184 362.667 288 314.816 394.667 256 394.667z"/><path fill="#fff" d="M256 202.667c-47.061 0-85.333 38.272-85.333 85.333 0 5.888 4.779 10.667 10.667 10.667S192 293.888 192 288c0-35.285 28.715-64 64-64 5.888 0 10.667-4.779 10.667-10.667s-4.779-10.666-10.667-10.666z"/></svg>