<svg xmlns="http://www.w3.org/2000/svg" width="350" height="350" xml:space="preserve" fill="#fff"><g id="icon" style="stroke:none;stroke-width:1;stroke-dasharray:none;stroke-linecap:butt;stroke-linejoin:miter;stroke-miterlimit:10;fill:none;fill-rule:nonzero;opacity:1" stroke-linecap="round"><path d="M45 90a1 1 0 0 1-.861-.491l-4.712-7.972C30.222 65.976 20.704 49.884 17.64 43.734a30.114 30.114 0 0 1-3.062-13.313C14.578 13.647 28.225 0 45 0c16.774 0 30.422 13.647 30.422 30.422 0 4.664-1.028 9.141-3.056 13.305-.012.023-.023.045-.036.067-3.095 6.193-12.581 22.231-21.757 37.743l-4.712 7.972A1 1 0 0 1 45 90zm0-88C29.328 2 16.578 14.75 16.578 30.422c0 4.359.96 8.542 2.854 12.43 3.027 6.073 12.522 22.126 21.705 37.649L45 87.035l3.853-6.517C58.04 64.987 67.539 48.927 70.57 42.842l.026-.049a28.166 28.166 0 0 0 2.826-12.372C73.422 14.75 60.672 2 45 2z" style="stroke:white;stroke-width:5px;stroke-dasharray:none;stroke-linecap:butt;stroke-linejoin:miter;stroke-miterlimit:10;fill:white;fill-rule:nonzero;opacity:1" transform="matrix(3.89 0 0 3.89 -1.944 -1.944)"/><path d="M45 42.436c-7.279 0-13.2-5.922-13.2-13.201s5.921-13.2 13.2-13.2c7.278 0 13.2 5.921 13.2 13.2S52.278 42.436 45 42.436zm0-24.401c-6.176 0-11.2 5.024-11.2 11.2 0 6.176 5.024 11.201 11.2 11.201s11.2-5.024 11.2-11.201c0-6.176-5.024-11.2-11.2-11.2z" style="stroke:white;stroke-width:5px;stroke-dasharray:none;stroke-linecap:butt;stroke-linejoin:miter;stroke-miterlimit:10;fill:white;fill-rule:nonzero;opacity:1" transform="matrix(3.89 0 0 3.89 -1.944 -1.944)"/></g></svg>