<svg xmlns="http://www.w3.org/2000/svg" width="350" height="350" xml:space="preserve" fill="#fff"><g id="icon" style="stroke:none;stroke-width:1;stroke-dasharray:none;stroke-linecap:butt;stroke-linejoin:miter;stroke-miterlimit:10;fill:none;fill-rule:nonzero;opacity:1" stroke-linecap="round"><path d="M45 1.802c16.583 0 30.075 13.491 30.075 30.075a30.078 30.078 0 0 1-7.145 19.434L45 78.317 22.07 51.311a30.073 30.073 0 0 1-7.145-19.434C14.925 15.294 28.417 1.802 45 1.802m0 43.89c8.222 0 14.912-6.689 14.912-14.912 0-8.222-6.689-14.912-14.912-14.912S30.088 22.557 30.088 30.78c0 8.222 6.69 14.912 14.912 14.912M45 0C27.395 0 13.123 14.272 13.123 31.877c0 7.86 2.858 15.043 7.573 20.6L45 81.101l24.304-28.624c4.716-5.558 7.573-12.741 7.573-20.6C76.877 14.272 62.605 0 45 0zm0 43.889c-7.24 0-13.11-5.869-13.11-13.11 0-7.24 5.869-13.11 13.11-13.11s13.11 5.869 13.11 13.11-5.87 13.11-13.11 13.11z" style="stroke:white;stroke-width:5px;stroke-dasharray:none;stroke-linecap:butt;stroke-linejoin:miter;stroke-miterlimit:10;fill:rgb(255,255,255);fill-rule:nonzero;opacity:1" transform="matrix(3.89 0 0 3.89 -1.944 -1.944)"/><path d="m58.814 71.531-1.575 1.575c9.772 1.532 15.583 4.707 15.583 7.094 0 3.261-10.838 7.997-27.822 7.997S17.178 83.461 17.178 80.2c0-2.387 5.811-5.562 15.583-7.094l-1.575-1.575c-9.401 1.643-15.81 4.907-15.81 8.669 0 5.412 13.263 9.8 29.625 9.8 16.361 0 29.625-4.388 29.625-9.8-.001-3.761-6.411-7.026-15.812-8.669z" style="stroke:white;stroke-width:5px;stroke-dasharray:none;stroke-linecap:butt;stroke-linejoin:miter;stroke-miterlimit:10;fill:rgb(255, 255, 255);fill-rule:nonzero;opacity:1" transform="matrix(3.89 0 0 3.89 -1.944 -1.944)"/></g></svg>