<svg width="25" height="29" fill="none" xmlns="http://www.w3.org/2000/svg"><g clip-path="url(#clip0)" fill="#FC0135"><path d="M20.08 28.288c0-.416-.334-.712-.745-.712H.744c-.41 0-.744.296-.744.712S.333 29 .744 29h18.591c.411 0 .744-.296.744-.712ZM.744 19.743a.757.757 0 0 0-.744.763c0 .416.333.763.744.763h.93v5.392H18.54v-5.392h.796c.411 0 .744-.347.744-.763a.757.757 0 0 0-.744-.763h-2.402v-1.932h1.577c.28 0 .632-.18.632-.463v-.05c0-.284-.352-.505-.632-.505H5.89v-.305H2.278v1.73H5.89v-.407h9.737v1.932H.744Z"/><path d="M23.701 21.151c.297-.732 2.23-5.506-2.696-10.092C16.079 6.474 19.254 1.83 15.857.156 12.461-1.52 3.923 10.79 6.023 13.706c2.101 2.917 10.015-2.25 13.824 1.894 3.852 5.28-.404 7.837-.404 7.837v1.551c2.61-.57 3.961-3.104 4.258-3.837ZM13.148 8.6c-2.296 3.323-4.98 5.434-5.995 4.714-1.014-.72.026-3.998 2.321-7.321C11.771 2.67 14.456.56 15.47 1.28c1.015.719-.024 3.997-2.32 7.32Z"/></g><defs><clipPath id="clip0"><path fill="#fff" d="M0 0h24.323v29H0z"/></clipPath></defs></svg>