<svg width="15" height="11" fill="none" xmlns="http://www.w3.org/2000/svg"><path stroke="#8C8C8C" stroke-width="1.5" d="M14.063 3.625H0M14.063.75H0M8 6.75H0M8 9.75H0"/><path d="M14.817 7.658a.374.374 0 0 1 .138.153l-4.91-2.61m4.772 2.457L10.529 5.05c-.172-.105-.389-.037-.484.152m4.772 2.457-.195.32-.001.003-.012.019m.208-.342-.195.32-.002.003L14.61 8M10.045 5.2l.299.152.074.038.072.037a.138.138 0 0 1-.082.064.173.173 0 0 1-.139-.016l.231.14v-.225c0 .01-.002.022-.008.034l-.068-.034-.079-.04-.3-.15Zm4.512 2.714-.14.085.14.085m0-.17a.116.116 0 0 0-.055.066.077.077 0 0 0 .007.055m.048-.121.044.073.001.002.006.01m-.051-.085.045.073v.002l.007.01m-.1.036v.001-.001m0 0v.001a.128.128 0 0 0 .047.048m-.047-.05Zm.047.05L14.61 8m-.053.085L14.61 8m0 0 .208.342L14.609 8M10.5 10.383l-.23.14-.002.002.001-.001a.168.168 0 0 1 .086-.024v.168l.001.332v-.5a.16.16 0 0 1 .118.049c.02.022.026.045.026.06v-.226Z" stroke="#8C8C8C"/></svg>