<svg xmlns="http://www.w3.org/2000/svg" viewBox="0 0 24 24"><path fill="#EECD00" d="M5 8.999a6.999 6.999 0 0 0 2.87 5.64c.569.41 1.2.74 1.88.97.01 0 .03.01.05.01.31.1.64.18.97.24.06.01.12.02.18.02.33.05.67.08 1.02.08s.69-.04 1.02-.09l.18-.03c.33-.06.66-.14.98-.25.01-.01.02-.02.04-.02 2.76-.94 4.76-3.551 4.76-6.63 0-3.86-3.14-7-7-7s-7 3.14-7 6.99Zm7-5c2.75 0 5 2.242 5 4.99h-2a3 3 0 0 0-3-3v-2Zm-4.479 12.79v5.2l4.479-1.5 4.47 1.5v-5.21c-1.33.76-2.85 1.2-4.48 1.2-1.64 0-3.16-.45-4.479-1.21Z"/></svg>