<svg width="38" height="29" fill="none" xmlns="http://www.w3.org/2000/svg"><g clip-path="url(#clip0)" fill="#FC0135"><path d="M33.862 6.563H3.503C1.616 6.563 0 8.143 0 10.052v2.24h37.286v-2.24c0-1.908-1.538-3.489-3.424-3.489Zm-21.827 3.939H2.95v-1.79h9.085v1.79Zm14.263.389a1.361 1.361 0 0 1-1.353-1.369c0-.755.606-1.369 1.353-1.369s1.354.614 1.354 1.369-.607 1.369-1.354 1.369Zm3.63 0a1.361 1.361 0 0 1-1.354-1.369c0-.755.606-1.369 1.354-1.369.748 0 1.353.614 1.353 1.369a1.36 1.36 0 0 1-1.353 1.369Zm3.63 0a1.362 1.362 0 0 1-1.353-1.369c0-.755.606-1.369 1.353-1.369.748 0 1.354.614 1.354 1.369s-.606 1.369-1.354 1.369ZM0 25.608C0 27.516 1.617 29 3.503 29h30.359c1.886 0 3.424-1.484 3.424-3.392V13.725H0v11.883Zm33.982-7.706h.593c.357.596.632 1.074.807 1.79h-1.4v-1.79Zm0 2.625h1.567c.036.12.058.512.058.791 0 .31-.024.76-.07.88h-1.555v-1.67Zm0 2.626h1.374c-.187.596-.475 1.074-.844 1.67h-.53v-1.67Zm-8.378 1.67h-.632c-.37-.596-.657-1.074-.845-1.67h1.477v1.67Zm5.9-9.138c.472.189 1.18.479 1.652.853v.767h-1.652v-1.62Zm0 2.217h1.652v1.79h-1.652v-1.79Zm0 2.625h1.652v1.67h-1.652v-1.67Zm0 2.626h1.652v1.67h-1.652v-1.67Zm0 2.386h1.652v.656c-.472.372-1.18.662-1.652.85V25.54Zm-2.596-10.046a5.86 5.86 0 0 1 .847-.058c.305 0 .687.024.923.069v1.8h-1.77v-1.81Zm0 2.409h1.77v1.79h-1.77v-1.79Zm0 2.625h1.77v1.67h-1.77v-1.67Zm0 2.626h1.77v1.67h-1.77v-1.67Zm0 2.386h1.77v1.688c-.236.045-.618.07-.923.07-.278 0-.61-.022-.847-.06V25.54Zm-2.478-9.058c.354-.361 1.062-.64 1.652-.818v1.642H26.43v-.824Zm0 1.42h1.652v1.79H26.43v-1.79Zm0 2.626h1.652v1.67H26.43v-1.67Zm0 2.626h1.652v1.67H26.43v-1.67Zm0 2.386h1.652v1.53c-.59-.18-1.298-.458-1.652-.82v-.71Zm-1.52-7.637h.694v1.79h-1.5c.175-.716.45-1.194.807-1.79Zm-.974 2.625h1.668v1.67h-1.656c-.046-.119-.07-.57-.07-.879.001-.279.021-.672.058-.79Zm-8.95-2.148H22.3v3.341h-7.316V18.38Zm0 4.416H22.3v1.551h-7.316v-1.551Zm-3.305-4.893h.696c.357.596.632 1.074.807 1.79h-1.503v-1.79Zm0 2.625h1.67c.036.12.058.512.058.791 0 .31-.024.76-.069.88h-1.659v-1.67Zm0 2.626h1.479c-.188.596-.476 1.074-.845 1.67h-.634v-1.67Zm-2.478-7.468c.59.189 1.18.479 1.652.853v.767H9.203v-1.62Zm0 2.217h1.652v1.79H9.203v-1.79Zm0 2.625h1.652v1.67H9.203v-1.67Zm0 2.626h1.652v1.67H9.203v-1.67Zm0 2.386h1.652v.656c-.472.372-1.062.662-1.652.85V25.54Zm-2.36-10.046c.119-.038.451-.058.73-.058.304 0 .804.024.804.069v1.8H6.844v-1.81Zm0 2.409h1.534v1.79H6.844v-1.79Zm0 2.625h1.534v1.67H6.844v-1.67Zm0 2.626h1.534v1.67H6.844v-1.67Zm0 2.386h1.534v1.688c0 .045-.5.07-.804.07-.279 0-.611-.022-.73-.06V25.54ZM4.13 16.481c.472-.361 1.132-.64 1.77-.818v1.642H4.13v-.824Zm0 1.42H5.9v1.79H4.13v-1.79Zm0 2.626H5.9v1.67H4.13v-1.67Zm0 2.626H5.9v1.67H4.13v-1.67Zm0 2.386H5.9v1.53c-.638-.18-1.298-.458-1.77-.82v-.71Zm-.708-.716h-.647c-.37-.596-.657-1.074-.843-1.67h1.49v1.67Zm-.71-6.921h.71v1.79H1.906c.175-.716.45-1.194.807-1.79Zm-.973 2.625h1.683v1.67H1.75c-.045-.119-.07-.57-.07-.879 0-.279.022-.672.058-.79ZM27.138 5.848V3.796C27.138 1.734 25.63 0 23.59 0h-9.783C11.77 0 10.03 1.734 10.03 3.796v2.052h2.006V3.796c0-.96.823-1.887 1.772-1.887h9.783c.95 0 1.66.927 1.66 1.887v2.052h1.888Z"/></g><defs><clipPath id="clip0"><path fill="#fff" d="M0 0h37.286v29H0z"/></clipPath></defs></svg>