<svg width="19" height="12" fill="none" xmlns="http://www.w3.org/2000/svg"><g opacity=".7" fill="#34353D"><path d="M6.903 11.689a.387.387 0 0 1-.27-.11l-2.19-2.135 2.19-2.136a.39.39 0 0 1 .542 0c.15.146.15.383 0 .529L5.527 9.444l1.647 1.606c.15.146.15.383 0 .53a.387.387 0 0 1-.272.109Z"/><path d="M14.19 9.818H5.273a.38.38 0 0 1-.383-.374.38.38 0 0 1 .383-.374h8.917c1.904 0 3.452-1.511 3.452-3.368 0-1.365-.834-2.586-2.125-3.111a.37.37 0 0 1-.207-.49.386.386 0 0 1 .502-.2c1.578.64 2.597 2.133 2.597 3.8 0 2.27-1.892 4.117-4.219 4.117ZM11.506 4.49a.387.387 0 0 1-.271-.109.368.368 0 0 1 0-.53l1.646-1.606L11.235.64a.368.368 0 0 1 0-.53.39.39 0 0 1 .542 0l2.189 2.136-2.189 2.136a.387.387 0 0 1-.271.11Z"/><path d="M2.745 9.818c-.05 0-.1-.01-.148-.03C1.02 9.149 0 7.656 0 5.989 0 3.718 1.893 1.87 4.219 1.87h8.917a.38.38 0 0 1 .384.374.38.38 0 0 1-.384.375H4.219C2.316 2.62.767 4.13.767 5.988c0 1.364.834 2.585 2.125 3.11a.37.37 0 0 1 .207.49.384.384 0 0 1-.354.23Z"/></g></svg>