<svg xmlns="http://www.w3.org/2000/svg" viewBox="0 0 24 24"><g fill="#8103FC"><path d="M16.646 12.85c.19.19.51.19.7 0l.64-.65.64.64a.5.5 0 0 0 .35.14c.12 0 .25-.05.35-.15l1-1c.09-.1.14-.23.14-.36v-8.5c0-.23-.16-.43-.38-.49l-4-1a.476.476 0 0 0-.43.09c-.13.09-.2.24-.2.39v9.5c0 .13.05.26.14.35l1 1ZM4.646 12.85c.19.19.51.19.7 0l.64-.65.64.64a.5.5 0 0 0 .35.14c.12 0 .25-.05.35-.15l1-1c.09-.1.14-.23.14-.36v-9.5c0-.16-.07-.3-.2-.4a.528.528 0 0 0-.43-.1l-4 1c-.23.05-.38.25-.38.48v8.5c0 .13.05.26.14.35l1 1Z"/><path d="M9.323.902c-.07.13-.06.29.01.42.11.22.16.44.16.669v9.5c0 .39-.16.78-.44 1.061l-1 1c-.47.47-1.24.56-1.81.23a.515.515 0 0 0-.51 0 1.53 1.53 0 0 1-1.81-.24l-1-1c-.28-.28-.44-.67-.44-1.07V3.2c0-.16-.08-.31-.2-.4a.503.503 0 0 0-.44-.09l-1 .27a.483.483 0 0 0-.369.48v17c0 .22.15.42.369.48l10.63 2.9V.07l-1.86.5a.49.49 0 0 0-.33.279Zm.53 17.45c-.1.09-.23.14-.36.14-.13 0-.26-.05-.36-.15l-.65-.65v1.79c0 .27-.23.5-.5.5-.28 0-.5-.23-.5-.5v-1.8l-.65.64c-.2.19-.52.19-.71 0-.2-.2-.2-.52 0-.71l1.49-1.5c.04-.05.1-.09.16-.11.12-.06.26-.06.38 0 .06.02.11.06.16.1l1.49 1.49c.19.19.19.51 0 .7ZM23.13 3.017l-1-.28a.525.525 0 0 0-.44.08c-.13.09-.2.24-.2.39v8.272c0 .39-.16.78-.44 1.061l-1 1c-.47.47-1.24.56-1.81.23a.515.515 0 0 0-.51 0c-.57.33-1.34.23-1.81-.24l-1-1c-.28-.28-.44-.67-.44-1.061v-9.5c0-.23.05-.45.16-.669.06-.14.07-.3.01-.43a.519.519 0 0 0-.33-.279L12.46.08v23.764l10.631-2.9c.21-.06.36-.26.36-.49v-17c0-.23-.16-.43-.37-.49Zm-5.98 15.957-3 1c-.06.01-.11.02-.16.02-.21 0-.41-.14-.48-.35-.09-.27.05-.55.31-.64l3-1c.26-.09.54.05.63.31a.51.51 0 0 1-.32.63Z"/></g></svg>