<svg width="18" height="12" fill="#FFF" xmlns="http://www.w3.org/2000/svg"><path d="M17.48 9.515h-1.44c-2.375 0-4.688-.84-6.514-2.366a.353.353 0 0 1-.04-.506.374.374 0 0 1 .519-.039 9.43 9.43 0 0 0 6.035 2.193h1.44c.203 0 .368.16.368.359a.364.364 0 0 1-.368.36ZM7.328 4.721a.371.371 0 0 1-.246-.091A9.31 9.31 0 0 0 .943 2.333H.368A.364.364 0 0 1 0 1.974c0-.198.165-.359.368-.359h.575c2.45 0 4.805.88 6.63 2.48.152.132.165.36.029.507a.37.37 0 0 1-.274.12Z"/><path d="M15.64 11.31a.37.37 0 0 1-.26-.105.353.353 0 0 1 0-.507l1.579-1.542-1.58-1.541a.353.353 0 0 1 0-.508.374.374 0 0 1 .52 0l2.1 2.05-2.1 2.048a.371.371 0 0 1-.26.106ZM15.64 4.309a.37.37 0 0 1-.26-.106.353.353 0 0 1 0-.507l1.579-1.542-1.58-1.541a.353.353 0 0 1 0-.508.374.374 0 0 1 .52 0l2.1 2.05-2.1 2.049a.371.371 0 0 1-.26.105Z"/><path d="M.943 9.694H.368A.364.364 0 0 1 0 9.335c0-.198.165-.359.368-.359h.575a9.284 9.284 0 0 0 7.158-3.34l.075-.108a10.099 10.099 0 0 1 7.864-3.733h1.44c.203 0 .368.16.368.359 0 .198-.165.359-.368.359h-1.44a9.359 9.359 0 0 0-7.214 3.371l-.074.109A10.024 10.024 0 0 1 .943 9.694Z"/></svg>