<svg height="511pt" viewBox="-76 0 511 512" width="511pt" xmlns="http://www.w3.org/2000/svg"><path d="M147.875 150.164c-11.68 0-21.367-9.234-21.828-21.008-.473-12.062 8.926-22.226 20.988-22.695l111.262-4.356 27.648-62.675c4.871-11.047 17.778-16.051 28.825-11.176 11.046 4.871 16.05 17.777 11.175 28.82l-33.156 75.164a21.867 21.867 0 0 1-19.144 13.024l-124.899 4.886c-.289.012-.582.016-.871.016zm0 0" fill="#ffb69e"/><path d="m227.988 103.293-80.949 3.168c-12.066.469-21.46 10.633-20.992 22.695.46 11.774 10.152 21.008 21.832 21.008.289 0 .578-.004.867-.016l79.242-3.101zm0 0" fill="#4699f2"/><path d="M178.145 511.426c-14.172-3.004-23.23-16.926-20.227-31.102l24.191-114.242-32.468-88.52c-4.989-13.601 1.996-28.671 15.597-33.66 13.606-4.992 28.672 1.993 33.66 15.594l35.067 95.606A26.207 26.207 0 0 1 235 369.57l-25.754 121.625c-3.004 14.176-16.93 23.23-31.101 20.23zm0 0" fill="#414b82"/><path d="m304.363 406.18-69.996-60.336-120.61-28.496c-14.1-3.328-22.831-17.461-19.5-31.563 3.333-14.097 17.462-22.828 31.563-19.496l126.852 29.969a26.223 26.223 0 0 1 11.094 5.66l74.855 64.523c10.973 9.457 12.2 26.024 2.742 36.997-9.46 10.972-26.023 12.203-37 2.742zm0 0" fill="#5f6e9b"/><path d="M93.543 291.82V134.785c0-16.902 13.703-30.605 30.605-30.605h54.582c16.903 0 30.606 13.703 30.606 30.605V286.02zm0 0" fill="#64afff"/><path d="M258.168 65.664c-5.84 0-10.738-4.559-11.078-10.465-.356-6.125 4.324-11.379 10.45-11.734l89.714-5.2c6.117-.355 11.379 4.325 11.73 10.45.356 6.125-4.32 11.379-10.445 11.734l-89.719 5.2c-.215.011-.433.015-.652.015zm0 0" fill="#50555a"/><path d="M265.816 55.691c0 11.973-9.703 21.676-21.675 21.676s-21.676-9.703-21.676-21.676 9.703-21.675 21.676-21.675 21.675 9.703 21.675 21.675zm0 0" fill="#373c41"/><path d="M196.984 45.309c0 25.02-20.285 45.304-45.304 45.304-25.024 0-45.309-20.285-45.309-45.304C106.371 20.285 126.656 0 151.68 0c25.02 0 45.304 20.285 45.304 45.309zM1.273 240.531l22.922-84.277a21.864 21.864 0 0 1 14.196-15.008l101.03-33.586c11.458-3.808 23.833 2.395 27.642 13.852 3.816 11.453-2.395 23.832-13.852 27.64L63.305 179.04 43.46 252.008c-3.168 11.652-15.184 18.527-26.832 15.355C4.992 264.2-1.902 252.191 1.273 240.531zm0 0" fill="#ffb69e"/><path d="M167.063 121.508c-3.81-11.457-16.184-17.656-27.641-13.848l-57.36 19.067 11.481 42.261 59.672-19.84c11.453-3.808 17.664-16.183 13.847-27.64zm0 0" fill="#4699f2"/></svg>