<svg width="25" height="36" fill="#FC0135" xmlns="http://www.w3.org/2000/svg"><g clip-path="url(#clip0)"><path d="M19.925 28.4c.686-7.636 2.401-9.891 2.401-9.891l-5.316-5.452c-1.136.861-1.84 4.385-2.148 9.846h-3.539c-.076-6.8.028-16.31.028-17.788 0-2.255.048-6.185-3.086-4.842C5.159 1.603 3.12 3.057 3.12 3.057l.686 1.567S10.658-.178 8.687 14.67c-1.265 11.905-1.115 17.766 1.43 19.802 3.944 3.155 9.123 1.562 9.808-6.073Zm-8.583-4.156h3.454c-.03.824-.053 1.442-.07 2.06h-3.338a107.84 107.84 0 0 1-.046-2.06Zm.293 5.599c-.085-.24-.15-.964-.2-2.097h3.234c-.392 5.977-2.54 3.489-3.034 2.097Z"/><path d="M13.965 11.428c0-.57-.671-1.198-1.234-1.198h-.7v2.267h.7c.563 0 1.234-.436 1.234-1.005v-.064ZM24.71 18.693l.012-.014a.967.967 0 0 0 0-1.354l-6.636-6.715a.94.94 0 0 0-1.34 0l-.011.012a.966.966 0 0 0 0 1.355l6.636 6.715c.37.375.97.375 1.339 0ZM13.965 7.559c0-.57-.671-1.141-1.234-1.141h-.7v2.164h.7c.563 0 1.234-.39 1.234-.96V7.56ZM.503 3.775c-.631 0-.71.959 0 1.438s2.616-.32 2.616-.32l-.644-1.437c.001 0-1.34.32-1.972.32ZM12.73 14.249h-.7v2.164h.7c.564 0 1.235-.482 1.235-1.052v-.064c0-.57-.671-1.048-1.234-1.048Z"/></g></svg>