<svg width="16" height="13" fill="none" xmlns="http://www.w3.org/2000/svg"><path d="M16 1.544a6.575 6.575 0 0 1-1.888.508A3.271 3.271 0 0 0 15.554.244a6.474 6.474 0 0 1-2.08.793A3.27 3.27 0 0 0 11.077 0a3.278 3.278 0 0 0-3.279 3.28c0 .255.03.508.08.753A9.318 9.318 0 0 1 1.12.6a3.256 3.256 0 0 0-.446 1.656c0 1.138.579 2.142 1.461 2.732a3.307 3.307 0 0 1-1.482-.417v.04a3.28 3.28 0 0 0 2.628 3.22c-.282.073-.572.11-.863.111a4.36 4.36 0 0 1-.62-.05 3.285 3.285 0 0 0 3.066 2.275 6.57 6.57 0 0 1-4.07 1.402c-.276 0-.53-.01-.793-.04A9.284 9.284 0 0 0 5.036 13c6.03 0 9.33-4.996 9.33-9.333 0-.142 0-.284-.01-.427A7.062 7.062 0 0 0 16 1.544Z" fill="#FC0135"/></svg>