<svg xmlns="http://www.w3.org/2000/svg" width="512" height="512" viewBox="0 0 480 480" style="enable-background:new 0 0 512 512" xml:space="preserve"><g fill="#fff"><g xmlns="http://www.w3.org/2000/svg"><path d="M456 8H24C15.164 8 8 15.164 8 24v272c0 8.836 7.164 16 16 16h432c8.836 0 16-7.164 16-16V24c0-8.836-7.164-16-16-16zm-8 280H32V32h416zm0 0" data-original="#57a4ff"/><path d="M200 232c0 13.254-10.746 24-24 24s-24-10.746-24-24 10.746-24 24-24 24 10.746 24 24zM312 200c0 13.254-10.746 24-24 24s-24-10.746-24-24 10.746-24 24-24 24 10.746 24 24zM312 64 200 96v32l112-32zM208 312h64v80h-64zM160 392v32h160v-32zm0 0" data-original="#57a4ff"/></g><path xmlns="http://www.w3.org/2000/svg" d="M456 0H24C10.746 0 0 10.746 0 24v272c0 13.254 10.746 24 24 24h176v64h-40a8 8 0 0 0-8 8v32a8 8 0 0 0 8 8h160a8 8 0 0 0 8-8v-32a8 8 0 0 0-8-8h-40v-64h176c13.254 0 24-10.746 24-24V24c0-13.254-10.746-24-24-24zM312 416H168v-16h144zm-48-32h-48v-64h48zm200-88a8 8 0 0 1-8 8H24a8 8 0 0 1-8-8V24a8 8 0 0 1 8-8h432a8 8 0 0 1 8 8zm0 0" data-original="#1e81ce"/><path xmlns="http://www.w3.org/2000/svg" d="M176 264c17.672 0 32-14.328 32-32v-97.969l96-27.422v65.84A31.665 31.665 0 0 0 288 168c-17.672 0-32 14.328-32 32s14.328 32 32 32 32-14.328 32-32V64a8 8 0 0 0-3.184-6.387 8.005 8.005 0 0 0-7.015-1.3l-112 32A7.995 7.995 0 0 0 192 96v108.45a31.665 31.665 0 0 0-16-4.45c-17.672 0-32 14.328-32 32s14.328 32 32 32zm112-48c-8.836 0-16-7.164-16-16s7.164-16 16-16 16 7.164 16 16-7.164 16-16 16zm-80-113.969 96-27.422v15.36l-96 27.422zM176 216c8.836 0 16 7.164 16 16s-7.164 16-16 16-16-7.164-16-16 7.164-16 16-16zm0 0" data-original="#1e81ce"/><path xmlns="http://www.w3.org/2000/svg" d="M448 24H32a8 8 0 0 0-8 8v256a8 8 0 0 0 8 8h416a8 8 0 0 0 8-8V32a8 8 0 0 0-8-8zm-8 256H40V40h400zm0 0" data-original="#1e81ce"/></g></svg>