<?xml version="1.0"?>
<svg xmlns="http://www.w3.org/2000/svg" viewBox="0 0 20 20">
    <path fill="#FFF" fill-rule="evenodd" d="M43 42H5c-2.209 0-4-1.8-4-4V10c0-2.21 1.791-4 4-4h38c2.2 0 4 1.79 4 4v28c0 2.2-1.8 4-4 4ZM12 8H5c-1.104 0-2 .89-2 2v2h9V8Zm11 0h-9v4h9V8Zm11 0h-9v4h9V8Zm11 2c0-1.11-.9-2-2-2h-7v4h9v0 -2Zm0 4v0H3v20h42v0V14Zm0 22v0h-9v4h-2v-4h-9v4h-2v-4h-9v4h-2v-4H3v2c0 1.1.89 2 2 2h38c1.1 0 2-.9 2-2v-2Zm-23.38-6.24c-.18.13-.39.23-.63.23 -.56 0-1-.45-1-1v-10c0-.56.44-1 1-1 .21 0 .4.08.56.19l7.77 4.872c.38.13.66.49.66.93 0 .32-.17.6-.41.78l-7.98 4.98Z" transform="scale(.41666)"></path>
</svg>