<svg xmlns="http://www.w3.org/2000/svg" viewBox="0 0 20 20"><g fill="#FFF"><path d="M15.417 1.667H4.583A4.59 4.59 0 0 0 0 6.25v7.5a4.59 4.59 0 0 0 4.583 4.583h10.834A4.59 4.59 0 0 0 20 13.75v-7.5a4.59 4.59 0 0 0-4.583-4.583Zm3.75 12.083a3.756 3.756 0 0 1-3.75 3.75H4.583a3.75 3.75 0 0 1-3.75-3.75v-7.5a3.75 3.75 0 0 1 3.75-3.75h10.834a3.755 3.755 0 0 1 3.75 3.75v7.5Z"/><path d="M8.142 5.9a.411.411 0 0 0-.425-.017.394.394 0 0 0-.225.359v7.5c0 .15.083.291.216.358.059.033.125.05.192.05.075 0 .15-.025.225-.067l5.833-3.75a.438.438 0 0 0 .184-.358.42.42 0 0 0-.192-.35l-5.833-3.75Zm.183 7.087V7.012l4.642 2.983-4.65 2.983Z"/></g></svg>