<?xml version="1.0"?>
<svg xmlns="http://www.w3.org/2000/svg" viewBox="0 0 20 20">
    <g transform="scale(.83333)">
        <g fill="#FFF">
            <path d="M18.5 2h-13C2.468 2 0 4.468 0 7.5v9C0 19.532 2.468 22 5.5 22h13c3.032 0 5.5-2.468 5.5-5.5v-9C24 4.468 21.532 2 18.5 2ZM23 16.5c0 2.48-2.02 4.5-4.5 4.5h-13C3.01 21 1 18.98 1 16.5v-9C1 5.019 3.01 3 5.5 3h13C20.98 3 23 5.019 23 7.5v9Z"></path>
            <path d="M9.77 7.08c-.16-.1-.36-.11-.51-.02 -.17.08-.27.25-.27.43v9c0 .18.1.35.26.43 .07.04.15.06.23.06 .09 0 .18-.03.27-.08l7-4.5c.14-.1.22-.26.22-.43 0-.17-.09-.33-.23-.42l-7-4.5Zm.22 8.504v-7.17l5.57 3.58 -5.58 3.58Z"></path>
        </g>
    </g>
</svg>