<svg xmlns="http://www.w3.org/2000/svg" viewBox="0 0 20 20"><path fill="#FFF" fill-rule="evenodd" d="M17.916 17.5H2.083a1.67 1.67 0 0 1-1.666-1.667V4.167c0-.921.746-1.667 1.666-1.667h15.833c.917 0 1.667.746 1.667 1.667v11.666c0 .917-.75 1.667-1.667 1.667ZM5 3.333H2.083c-.46 0-.833.371-.833.834V5H5V3.333Zm4.583 0h-3.75V5h3.75V3.333Zm4.583 0h-3.75V5h3.75V3.333Zm4.584.834a.833.833 0 0 0-.834-.834H15V5h3.75v-.833Zm0 1.666H1.25v8.333h17.5V5.833Zm0 9.167H15v1.666h-.834V15h-3.75v1.666h-.833V15h-3.75v1.666H5V15H1.25v.833c0 .458.37.833.833.833h15.833a.836.836 0 0 0 .834-.833V15Zm-9.742-2.6a.449.449 0 0 1-.262.096.415.415 0 0 1-.417-.417V7.912c0-.233.183-.416.417-.416.087 0 .166.033.233.079l3.237 2.03a.407.407 0 0 1 .275.387.41.41 0 0 1-.17.325l-3.325 2.075Z"/></svg>